# xmcd
#
# Track frame offsets: 
#        150
#        12188
#        25127
#        50922
#        64342
#        77724
#        86905
#        97455
#        112696
#        124594
#        150316
#
# Disc length: 2214 seconds
#
# Revision: 0
# Processed by: cddbd v1.5.2PL0 Copyright (c) Steve Scherf et al.
# Submitted via: ExactAudioCopy v0.99pb3
#
DISCID=8908a40b
DTITLE=Johnny Nicholas - Broke Again 
DYEAR=2007
DGENRE=Blues
TTITLE0=Broke Again
TTITLE1=Curb Your Dog
TTITLE2=Visitor In My Dreams
TTITLE3=Too Many Bad Habits
TTITLE4=Terminal Love
TTITLE5=Ride Your Train
TTITLE6=My Rice Ain't Got No Gravy
TTITLE7=Prodigal Son's Waltz
TTITLE8=Glad To Get To Hell
TTITLE9=Thick and Thin
TTITLE10=Lonesome Traveler
EXTD=
EXTT0=
EXTT1=
EXTT2=
EXTT3=
EXTT4=
EXTT5=
EXTT6=
EXTT7=
EXTT8=
EXTT9=
EXTT10=
PLAYORDER=
